<svg xmlns="http://www.w3.org/2000/svg" viewBox="0 0 980 980" fill="none" shape-rendering="auto"><metadata xmlns:rdf="http://www.w3.org/1999/02/22-rdf-syntax-ns#" xmlns:xsi="http://www.w3.org/2001/XMLSchema-instance" xmlns:dc="http://purl.org/dc/elements/1.1/" xmlns:dcterms="http://purl.org/dc/terms/"><rdf:RDF><rdf:Description><dc:title>Lorelei</dc:title><dc:creator>Lisa Wischofsky</dc:creator><dc:source xsi:type="dcterms:URI">https://www.figma.com/community/file/1198749693280469639</dc:source><dcterms:license xsi:type="dcterms:URI">https://creativecommons.org/publicdomain/zero/1.0/</dcterms:license><dc:rights>Remix of „Lorelei” (https://www.figma.com/community/file/1198749693280469639) by „Lisa Wischofsky”, licensed under „CC0 1.0” (https://creativecommons.org/publicdomain/zero/1.0/)</dc:rights></rdf:Description></rdf:RDF></metadata><mask id="viewboxMask"><rect width="980" height="980" rx="0" ry="0" x="0" y="0" fill="#fff" /></mask><g mask="url(#viewboxMask)"><rect fill="#ffffff" width="980" height="980" x="0" y="0" /><g transform="translate(10 -60)"><path d="m405 197-2 7-4 12c17-4 33-6 50-7 20-1 41 0 62 3 18 2 36 7 54 11l57 17c15 4 30 8 46 10 4 1 7 1 10 4l-3 4c-2 3-5 3-8 5 10 7 19 15 27 23l16 20c3 4 6 9 7 14v5l-13 7c4 12 8 24 8 37 0 10 1 21-3 31-1 3-1 6-4 7-4 1-7-2-9-5a328 328 0 0 1-42-64l-14-3 6 10c1 1 3 3 2 5-1 3-4 3-7 4-14 3-30 1-44-2-22-6-43-14-64-23l-24-13c-5-1-9-4-13-6-3-1-6-2-7-5l6-7-2-3c-3-1-7 1-11 1-6 0-12 1-17 3l2-12c0-2-3-4-4-2-4 2-6 5-9 8l-10 12-3 1-24-6-8 1c-2 1-2 3 0 4 3 4 6 7 8 12 0 9-5 17-10 24-9 11-19 21-31 29l-21 14c-4 2-6 5-6 8l-1 29c0 3 0 6-2 9-15 15-28 32-34 53-4 15-3 29-2 44v21l-1 9c-1 4-4 7-8 8-10 3-20 8-32 8-5 0-7 4-12 2s-6-7-8-11c-21-46-31-96-27-147 2-29 9-58 22-84 11-23 26-44 45-61a194 194 0 0 1 57-34l5-2a176 176 0 0 1 48-40c2-1 5-1 6 1Z" fill="#000000"/><path d="M528 244c41 6 80 22 113 47 28 21 50 49 65 81 13 28 20 60 19 91-1 15-3 30-8 44h-2l1-21c1-30-2-59-13-87-10-30-28-57-50-79-42-40-98-62-156-63a243 243 0 0 0-196 94 207 207 0 0 0-40 139l2 25c8 0 19 0 25 7l-3 3-17 1c-12 1-24 5-33 13a64 64 0 0 0-17 39c-5 32 12 65 39 83 16 10 36 15 55 9 4-2 9-5 14-3 3 1 4 4 5 7a251 251 0 0 0 90 100c8 7 18 13 28 18 18 8 38 14 57 19l32 8c5 1 9 1 13 3l-4 1c-25 2-48-3-72-10-12-3-23-7-34-12a306 306 0 0 1-84-63l2 28c1 17 0 35-6 52-4 12-11 24-19 34-10 10-22 19-34 26-10 7-21 14-32 18l-16 5 9-9 31-20 22-17a95 95 0 0 0 32-56c2-14 2-28 2-43v-27c-10-14-22-29-27-46-17 8-38 7-55-1-17-7-32-19-43-33-12-17-19-36-21-56s2-40 15-56c9-10 22-18 35-21-4-14-6-29-6-44a234 234 0 0 1 83-173 249 249 0 0 1 199-55Z" fill="#000"/><path d="M653 320c22 22 40 49 50 79 11 28 14 57 13 87l-1 21-5 15-2 13 2 56c0 21 1 42-1 63l-3 47c-2 16-7 31-14 45-11 18-26 33-44 44-13 8-27 12-41 16l-38 11-17 3c0 1 1 2 3 2 8 5 17 5 26 4-3 7-4 14-2 22 3 7 11 11 17 14 12 6 24 7 36 9 7 6 14 14 16 24 2 8 2 16-2 23-5 10-14 18-24 23-13 8-27 14-42 18a468 468 0 0 1-222-1c-17-4-33-9-48-17-12-6-23-13-32-22-5-7-9-14-10-23 11-4 22-11 32-18 12-7 24-16 34-26 8-10 15-22 19-34 6-17 7-35 6-52l-2-28 22 23c19 15 40 30 62 40 11 5 22 9 34 12 24 7 47 12 72 10l4-1c-4-2-8-2-13-3l-32-8c-19-5-39-11-57-19l-29-17c-11-9-23-17-33-27a251 251 0 0 1-56-74c-1-3-2-6-5-7-5-2-10 1-14 3-19 6-39 1-55-9a88 88 0 0 1-39-83c1-14 7-28 17-39 9-8 21-12 33-13l17-1 3-3c-6-7-17-7-25-7l-2-25a207 207 0 0 1 40-139 243 243 0 0 1 196-94c58 1 114 23 156 63Z" fill="#ffffff"/><path d="M710 522c3 0 3 4 4 6 3 11 4 23 5 34l2 21c1 22 2 43 1 65-1 21-1 44-5 65a136 136 0 0 1-80 99c-15 7-31 11-48 13v15c1 3 3 4 5 6 12 6 23 8 36 11 12 3 24 5 36 11-3 3-7 4-11 4-7 1-15-1-23-1-12-2-24-3-36-9-6-3-14-7-17-14-2-8-1-15 2-22-9 1-18 1-26-4-2 0-3-1-3-2l17-3 38-11c14-4 28-8 41-16 18-11 33-26 44-44 7-14 12-29 14-45l3-47c2-21 1-42 1-63l-2-56 2-13ZM252 549c8 0 17 1 23 7 5 4 10 9 12 15 1 3 0 6-2 8l-13 8c-7 6-7 19 0 25 6 5 14 8 21 11 2 0 5 1 6 3-1 2-3 3-5 3-10 0-20-3-28-9-5-3-8-8-9-13-2-8-2-17 4-24 4-6 11-9 18-12-4-5-7-11-14-13-7-3-15-3-22-5l9-4Z" fill="#000"/><path d="M473 484c4-2 10-1 13 3 5 4 8 11 8 17 2 10 0 21-4 30-3 6-6 12-13 14-6 2-14-1-17-7-5-6-6-15-6-22 1-8 2-16 6-24 3-5 7-9 13-11ZM643 491c4-2 9-2 13 2 5 4 7 12 7 18 1 9-1 18-5 25-2 5-6 8-11 10-5 1-11-1-14-5-3-3-5-7-6-12-1-9 1-18 4-26 3-5 6-10 12-12Z" fill="#000000"/><path d="M658 387c7 1 14 2 20 5l6 5c-8 5-18 8-28 8h-17l-16 2c-6 1-10 7-13 12-6 11-8 25-10 37-4-3-3-8-3-12 0-14 2-29 10-41 4-6 10-13 17-14 11-3 23-3 34-2ZM533 426c6-1 12 0 17 3 2 0 2 1 2 3l-8 8c-3 3-8 4-12 6l-18 3-47 3c-14 1-28 1-41 4-14 4-26 10-37 18l-9 8c-1-2-1-4 1-6 3-6 9-12 14-17 16-12 35-19 55-22l69-7c5 0 9-3 14-4Z" fill="#000000"/><path d="M603 613v1c-4 8-11 15-20 18-3 1-7 1-9-1v-4c7-5 16-9 24-12l5-2Z" fill="#000000"/><path d="M497 679c8 3 15 5 22 9 4 1 7 3 11 3l13-2c5-1 10-1 14 3 7 5 8 17 2 23s-16 7-24 9c-6 1-13 1-19-2-4-1-6-3-8-6l5-4c6-2 13 1 19 0l15-3 5-4c0-2-1-5-4-5-7-1-13 4-20 3-9-1-16-7-25-10-4-2-9-5-14-5-4 0-6 3-7 6-2 4-3 9-1 13-2 3-5 1-7-1-4-8-1-19 6-25 5-3 12-3 17-2Z" fill="#000000"/><path d="M404 197c2 2 0 5-1 7l-4 12a338 338 0 0 1 135 0c28 6 55 14 82 22 17 5 33 9 51 12 4 0 8 1 11 4l-4 5-7 4c15 11 30 24 41 39 4 6 8 12 10 19 1 3-1 4-3 6l-18 7c-18 7-38 5-57 1 2 4 3 7 6 9 1 2 3 3 2 6s-5 3-7 4c-14 3-30 1-44-2-22-6-44-14-65-24l-39-19-5-4 7-7-2-3-15 1-14 3 3-12c1-2-1-3-3-3l-5 4-13 13-3 5-5-1c-8-3-17-5-25-5-3 0-6 1-5 4 3 5 7 7 9 13 0 8-5 17-10 24-9 11-19 21-30 29l-22 14c-4 2-6 4-6 8l-1 30c0 3 0 7-3 9-14 14-27 32-32 51-4 14-4 27-3 41v27c-1 2-1 6-4 7l-7-2-19-7a85 85 0 0 1-38-40c-6-13-10-26-13-40a228 228 0 0 1 3-104 178 178 0 0 1 72-102c13-10 28-19 44-24l4-3a162 162 0 0 1 46-39c3-1 5-1 6 1Z" fill="#000000"/></g><g transform="translate(10 -60)"></g></g></svg>