<svg xmlns="http://www.w3.org/2000/svg" viewBox="0 0 980 980" fill="none" shape-rendering="auto"><metadata xmlns:rdf="http://www.w3.org/1999/02/22-rdf-syntax-ns#" xmlns:xsi="http://www.w3.org/2001/XMLSchema-instance" xmlns:dc="http://purl.org/dc/elements/1.1/" xmlns:dcterms="http://purl.org/dc/terms/"><rdf:RDF><rdf:Description><dc:title>Lorelei</dc:title><dc:creator>Lisa Wischofsky</dc:creator><dc:source xsi:type="dcterms:URI">https://www.figma.com/community/file/1198749693280469639</dc:source><dcterms:license xsi:type="dcterms:URI">https://creativecommons.org/publicdomain/zero/1.0/</dcterms:license><dc:rights>Remix of „Lorelei” (https://www.figma.com/community/file/1198749693280469639) by „Lisa Wischofsky”, licensed under „CC0 1.0” (https://creativecommons.org/publicdomain/zero/1.0/)</dc:rights></rdf:Description></rdf:RDF></metadata><mask id="viewboxMask"><rect width="980" height="980" rx="0" ry="0" x="0" y="0" fill="#fff" /></mask><g mask="url(#viewboxMask)"><rect fill="#ffffff" width="980" height="980" x="0" y="0" /><g transform="translate(10 -60)"><path fill-rule="evenodd" clip-rule="evenodd" d="M466 196h1c10 2 21 4 30 8 11-5 22-8 34-8 21 0 42 3 62 11l21 11a994 994 0 0 0 22 12h1c10 6 18 13 26 21a202 202 0 0 1 56 117l1 2c0 2 0 3 2 4 16 13 26 32 32 52 4 14 2 30-3 44-6 17-16 32-29 44l-1 2 9 9c7 4 12 10 18 15 17 19 31 42 36 67 3 13 3 27 0 41-5 18-17 33-31 43-8 6-16 10-24 14 3 4 6 9 7 13 4 12 3 25-2 36s-13 19-22 26l-20 11c-4 1-9 2-13-1-2-1-2-3-1-5v-1l3-17c-13 16-30 28-49 35a138 138 0 0 1-57 6l-11-1c-9 0-16-2-24-4l-9-2a552 552 0 0 0-158-14l-4 2-2 2c-21 17-48 24-74 26-11 1-21 0-32-1-18-2-37-7-52-17l-2-1-4-2c-12-1-24-6-34-13-9-6-16-16-20-26-6-12-9-24-8-37 1-18 9-36 22-48-4-5-9-9-12-15-13-18-20-41-23-64-1-15 0-31 3-46a153 153 0 0 1 67-91c-9 3-17 9-25 14-13 9-25 21-34 34-6 8-11 16-14 26l-2 3-2 6c-2-1-2-3-2-5-1-6 0-12 2-17 5-22 18-41 35-56 14-13 31-22 49-27l1-1a265 265 0 0 1 49-148 217 217 0 0 1 211-89Zm293 388c5 9 9 20 11 31 2 10 1 21-2 31-5 14-15 27-27 36 13-18 20-40 21-62 1-12 0-24-2-36h-1ZM190 689c-7-2-14-7-20-11a77 77 0 0 0-15 49c2 21 14 42 33 52-9-13-15-27-15-43-1-12 2-25 8-36l7-9 2-2Z" fill="#000000"/><path d="M528 244c41 6 80 22 113 47 28 21 50 49 65 81 13 28 20 60 19 91-1 15-3 30-8 44h-2l1-21c1-30-2-59-13-87-10-30-28-57-50-79-42-40-98-62-156-63a243 243 0 0 0-196 94 207 207 0 0 0-40 139l2 25c8 0 19 0 25 7l-3 3-17 1c-12 1-24 5-33 13a64 64 0 0 0-17 39c-5 32 12 65 39 83 16 10 36 15 55 9 4-2 9-5 14-3 3 1 4 4 5 7a251 251 0 0 0 90 100c8 7 18 13 28 18 18 8 38 14 57 19l32 8c5 1 9 1 13 3l-4 1c-25 2-48-3-72-10-12-3-23-7-34-12a306 306 0 0 1-84-63l2 28c1 17 0 35-6 52-4 12-11 24-19 34-10 10-22 19-34 26-10 7-21 14-32 18l-16 5 9-9 31-20 22-17a95 95 0 0 0 32-56c2-14 2-28 2-43v-27c-10-14-22-29-27-46-17 8-38 7-55-1-17-7-32-19-43-33-12-17-19-36-21-56s2-40 15-56c9-10 22-18 35-21-4-14-6-29-6-44a234 234 0 0 1 83-173 249 249 0 0 1 199-55Z" fill="#000"/><path d="M653 320c22 22 40 49 50 79 11 28 14 57 13 87l-1 21-5 15-2 13 2 56c0 21 1 42-1 63l-3 47c-2 16-7 31-14 45-11 18-26 33-44 44-13 8-27 12-41 16l-38 11-17 3c0 1 1 2 3 2 8 5 17 5 26 4-3 7-4 14-2 22 3 7 11 11 17 14 12 6 24 7 36 9 7 6 14 14 16 24 2 8 2 16-2 23-5 10-14 18-24 23-13 8-27 14-42 18a468 468 0 0 1-222-1c-17-4-33-9-48-17-12-6-23-13-32-22-5-7-9-14-10-23 11-4 22-11 32-18 12-7 24-16 34-26 8-10 15-22 19-34 6-17 7-35 6-52l-2-28 22 23c19 15 40 30 62 40 11 5 22 9 34 12 24 7 47 12 72 10l4-1c-4-2-8-2-13-3l-32-8c-19-5-39-11-57-19l-29-17c-11-9-23-17-33-27a251 251 0 0 1-56-74c-1-3-2-6-5-7-5-2-10 1-14 3-19 6-39 1-55-9a88 88 0 0 1-39-83c1-14 7-28 17-39 9-8 21-12 33-13l17-1 3-3c-6-7-17-7-25-7l-2-25a207 207 0 0 1 40-139 243 243 0 0 1 196-94c58 1 114 23 156 63Z" fill="#ffffff"/><path d="M710 522c3 0 3 4 4 6 3 11 4 23 5 34l2 21c1 22 2 43 1 65-1 21-1 44-5 65a136 136 0 0 1-80 99c-15 7-31 11-48 13v15c1 3 3 4 5 6 12 6 23 8 36 11 12 3 24 5 36 11-3 3-7 4-11 4-7 1-15-1-23-1-12-2-24-3-36-9-6-3-14-7-17-14-2-8-1-15 2-22-9 1-18 1-26-4-2 0-3-1-3-2l17-3 38-11c14-4 28-8 41-16 18-11 33-26 44-44 7-14 12-29 14-45l3-47c2-21 1-42 1-63l-2-56 2-13ZM252 549c8 0 17 1 23 7 5 4 10 9 12 15 1 3 0 6-2 8l-13 8c-7 6-7 19 0 25 6 5 14 8 21 11 2 0 5 1 6 3-1 2-3 3-5 3-10 0-20-3-28-9-5-3-8-8-9-13-2-8-2-17 4-24 4-6 11-9 18-12-4-5-7-11-14-13-7-3-15-3-22-5l9-4Z" fill="#000"/><path d="M642 509c6-1 10 2 13 7 3 7 3 17-1 24-3 5-10 8-16 5-5-3-6-8-7-13-1-4 0-10 2-14s5-8 9-9ZM494 514c6-3 11-1 15 3 5 6 6 15 2 22-2 5-8 11-14 11-5 0-9-4-12-8-3-7-2-14 1-21 2-3 5-6 8-7Z" fill="#000000"/><path d="M658 387c7 1 14 2 20 5l6 5c-8 5-18 8-28 8h-17l-16 2c-6 1-10 7-13 12-6 11-8 25-10 37-4-3-3-8-3-12 0-14 2-29 10-41 4-6 10-13 17-14 11-3 23-3 34-2ZM533 426c6-1 12 0 17 3 2 0 2 1 2 3l-8 8c-3 3-8 4-12 6l-18 3-47 3c-14 1-28 1-41 4-14 4-26 10-37 18l-9 8c-1-2-1-4 1-6 3-6 9-12 14-17 16-12 35-19 55-22l69-7c5 0 9-3 14-4Z" fill="#000000"/><path d="M597 505h1l3 15 3 26 8 13 6 12c2 5 2 10 5 14 3 5 5 10 5 16 0 9-6 17-14 20l-19 8c-5 3-9 5-15 5-5 0-11 0-13-5-2-2 0-4 2-5l12-3 16-5 13-5c6-2 9-8 7-14l-5-8-7-17-7-19c-4-8-6-17-5-26 0-7 1-15 4-22Z" fill="#000000"/><path d="M607 684c3 2 2 6 1 9-2 8-4 15-9 22-5 5-10 10-17 12-10 4-22 2-31-3-4-2-9-5-11-9-1-1-2-3-1-4 2-2 5-3 8-3 9 1 18 6 27 7 7 1 13-3 17-8 5-6 8-15 12-22 1-2 2-2 4-1Z" fill="#000000"/><path fill-rule="evenodd" clip-rule="evenodd" d="M468 196a218 218 0 0 0-234 122 323 323 0 0 0-25 186l4 19c1 3 3 6 5 6l4 1h1c5 6 12 10 20 12 12 4 26 4 38 2-3 16 1 34 7 49 5 12 13 25 23 34a67 67 0 0 0 51 14c5-1 9-4 13-8v-1l2-5h-3c-3 0-5 0-8-2-11-6-19-17-25-28-10-20-15-43-15-65 13-6 24-16 33-27l7-5 4-2c9-6 17-14 25-22 17-20 30-43 39-67a443 443 0 0 0 16-63c4-20 8-41 17-60a185 185 0 0 1 34 1l12 1c3-1 4-4 4-7 0-5-3-10-6-14a272 272 0 0 1 45 26c2 2 5 3 7 2a172 172 0 0 0 26-13l6-4 14-7c-3 5-7 12-7 18 0 3 3 5 6 5 11 1 21-1 32-4l4-1c4-1 8 2 11 4 9 9 15 22 16 34a118 118 0 0 1 0 35l-1 11-1 15-2 37c2 16 8 32 20 43 9 9 22 12 34 9 6-2 12-6 16-10 5-4 7-9 7-16l-11 4-14 4v-8c4-3 8-7 10-11l-2-9-1-7-3-23-3-25-1-7c-2-14-4-27-9-41a162 162 0 0 0-42-68c-6-4-11-7-18-9a136 136 0 0 0-39-36c-17-8-34-14-52-17-15-2-32-3-46 1l-16 5c-9-4-19-6-29-8Zm-20 115c3-8 5-17 10-25-14 1-27 3-41 6-7 13-14 27-18 41a232 232 0 0 0-10 71c-2 21-3 43-9 63 19-20 34-45 42-71 6-15 10-30 14-46 4-13 7-26 12-38v-1Z" fill="#000000"/></g><g transform="translate(10 -60)"></g></g></svg>